<svg width="280" height="64" viewBox="0 0 280 64" fill="none" xmlns="http://www.w3.org/2000/svg">
<path d="M59.5832 20.7857C60.4008 20.7857 60.6733 21.081 60.6733 21.8762V39.8705H69.9165C70.7113 39.8705 71.0066 40.1658 71.0066 40.961V42.5514C71.0066 43.3466 70.7113 43.642 69.9165 43.642H57.7437C56.9488 43.642 56.6309 43.3466 56.6309 42.5514V21.8762C56.6309 21.081 56.9488 20.7857 57.7437 20.7857H59.5832Z" fill="#00205B"/>
<path d="M79.0686 28.7149C79.0686 23.4666 82.3844 20.3085 88.1528 20.3085C93.9213 20.3085 97.237 23.4666 97.237 28.7149V35.7126C97.237 40.961 93.8986 44.119 88.1528 44.119C82.4071 44.119 79.0686 40.961 79.0686 35.7126V28.7149ZM93.4216 28.7149C93.4216 25.7613 91.5821 24.1709 88.2664 24.1709C84.9507 24.1709 83.1338 25.784 83.1338 28.7149V35.7581C83.1338 38.7344 84.9507 40.3021 88.2664 40.3021C91.5821 40.3021 93.4216 38.6662 93.4216 35.7581V28.7149Z" fill="#00205B"/>
<path d="M124.285 31.1232C125.171 31.1232 125.375 31.4186 125.375 32.2138V36.5306C125.399 37.5473 125.196 38.5568 124.779 39.4844C124.362 40.4123 123.744 41.235 122.968 41.8925C121.041 43.4273 118.612 44.1886 116.155 44.0282C110.273 44.0282 107.071 40.8701 107.071 35.6218V28.5786C107.071 23.3985 110.386 20.2177 116.155 20.2177C120.697 20.2177 123.649 22.0125 124.898 25.6023C124.968 25.7372 125.006 25.8865 125.008 26.0383C125.01 26.1903 124.977 26.3407 124.91 26.4772C124.844 26.614 124.747 26.7335 124.627 26.8262C124.506 26.9187 124.366 26.9821 124.217 27.0109L122.446 27.6244C121.674 27.897 121.356 27.738 121.083 26.9428C120.707 25.9724 120.018 25.1549 119.125 24.6201C118.233 24.0853 117.188 23.8631 116.155 23.9892C112.816 23.9892 111 25.6023 111 28.5332V35.7581C111 38.7344 112.839 40.3021 116.155 40.3021C119.471 40.3021 121.515 38.7799 121.515 36.5533V34.872H116.586C115.769 34.872 115.474 34.554 115.474 33.7588V32.2138C115.474 31.4186 115.769 31.1232 116.586 31.1232H124.285Z" fill="#00205B"/>
<path d="M134.754 28.7149C134.754 23.4666 138.07 20.3085 143.839 20.3085C149.607 20.3085 152.923 23.4666 152.923 28.7149V35.7126C152.923 40.961 149.584 44.119 143.839 44.119C138.093 44.119 134.754 40.961 134.754 35.7126V28.7149ZM149.085 28.7149C149.085 25.7613 147.245 24.1709 143.952 24.1709C140.659 24.1709 138.797 25.784 138.797 28.7149V35.7581C138.797 38.7344 140.636 40.3021 143.952 40.3021C147.268 40.3021 149.085 38.6662 149.085 35.7581V28.7149Z" fill="#00205B"/>
<path d="M163.619 21.4445C163.619 20.9447 163.778 20.7857 164.278 20.7857H165.323C165.822 20.7857 165.936 20.9447 165.936 21.4445V42.9831C165.936 43.4829 165.936 43.642 165.323 43.642H164.278C163.778 43.642 163.619 43.4829 163.619 42.9831V21.4445Z" fill="#00205B"/>
<path d="M186.625 20.7857C188.516 20.7857 190.33 21.5372 191.667 22.8752C193.004 24.213 193.756 26.0276 193.756 27.9197C193.756 29.8119 193.004 31.6265 191.667 32.9643C190.33 34.3022 188.516 35.0538 186.625 35.0538H179.811V42.9831C179.811 43.4829 179.698 43.642 179.221 43.642H178.154C177.677 43.642 177.495 43.4829 177.495 42.9831V21.4445C177.495 20.9447 177.677 20.7857 178.154 20.7857H186.625ZM186.42 32.8045C187.07 32.8045 187.714 32.6764 188.315 32.4276C188.915 32.1786 189.461 31.8137 189.921 31.3539C190.381 30.894 190.745 30.3478 190.994 29.7471C191.243 29.1462 191.371 28.5021 191.371 27.8516C191.371 27.2011 191.243 26.557 190.994 25.9561C190.745 25.3553 190.381 24.8091 189.921 24.3493C189.461 23.8894 188.915 23.5246 188.315 23.2755C187.714 23.0268 187.07 22.8986 186.42 22.8986H179.607V32.8045H186.42Z" fill="#00205B"/>
<path d="M211.493 20.3312C213.246 20.1377 215.015 20.515 216.537 21.4072C218.058 22.2997 219.253 23.6592 219.941 25.2842C220.122 25.6477 219.941 25.9431 219.577 26.1248L218.578 26.5792C218.169 26.7383 218.01 26.7155 217.761 26.2839C217.246 25.0779 216.361 24.0668 215.234 23.3971C214.108 22.7273 212.797 22.4333 211.493 22.5578C207.654 22.5578 205.565 24.08 205.565 26.8064C205.543 27.6396 205.822 28.4529 206.353 29.0959C206.883 29.7389 207.627 30.1685 208.449 30.3053C209.671 30.7038 210.937 30.948 212.219 31.0323C213.771 31.115 215.302 31.429 216.761 31.9639C217.881 32.3181 218.844 33.0465 219.489 34.0271C220.134 35.0077 220.422 36.1805 220.304 37.3485C220.304 41.5971 217.216 44.1645 211.538 44.1645C209.676 44.3776 207.797 43.9459 206.214 42.9412C204.631 41.9368 203.44 40.4198 202.84 38.6435C202.8 38.5627 202.778 38.4738 202.776 38.3834C202.774 38.293 202.793 38.2034 202.83 38.121C202.866 38.0385 202.921 37.9651 202.99 37.9063C203.058 37.8472 203.139 37.8043 203.226 37.7802L204.225 37.4167C204.304 37.3844 204.388 37.3689 204.473 37.3712C204.558 37.3735 204.642 37.3935 204.719 37.4298C204.796 37.4662 204.864 37.518 204.92 37.5823C204.976 37.6466 205.018 37.7216 205.043 37.8029C205.551 39.0863 206.454 40.1746 207.622 40.9101C208.79 41.6453 210.161 41.9895 211.538 41.8925C215.83 41.8925 217.942 40.393 217.942 37.3485C217.983 36.5483 217.738 35.7597 217.25 35.1231C216.764 34.4867 216.068 34.0434 215.285 33.8723C214.11 33.5218 212.898 33.3082 211.674 33.2362L209.221 32.9181C208.454 32.7552 207.696 32.5503 206.95 32.3047C206.214 32.0822 205.528 31.7196 204.929 31.2368C204.327 30.6911 203.852 30.0195 203.538 29.2695C203.224 28.5195 203.079 27.7098 203.112 26.8973C203.271 22.9213 206.246 20.3312 211.493 20.3312Z" fill="#00205B"/>
<path d="M232.545 35.8717C232.641 37.4785 233.347 38.9878 234.519 40.0913C235.691 41.1948 237.239 41.8092 238.847 41.8092C240.455 41.8092 242.004 41.1948 243.176 40.0913C244.348 38.9878 245.052 37.4785 245.15 35.8717V21.4445C245.15 20.9447 245.308 20.7857 245.808 20.7857H246.853C247.352 20.7857 247.511 20.9447 247.511 21.4445V35.849C247.511 41.0065 244.468 44.1191 238.859 44.1191C233.249 44.1191 230.206 41.0065 230.206 35.849V21.4445C230.206 20.9447 230.365 20.7857 230.842 20.7857H231.909C232.386 20.7857 232.545 20.9447 232.545 21.4445V35.8717Z" fill="#00205B"/>
<path d="M278.852 20.7857C279.352 20.7857 279.511 20.9447 279.511 21.4445V42.9831C279.511 43.4829 279.352 43.642 278.852 43.642H277.898C277.422 43.642 277.263 43.4829 277.263 42.9831V29.8736C277.263 27.9663 277.392 26.061 277.649 24.1709H277.512C276.804 25.8992 275.975 27.5769 275.037 29.192L270.154 37.8029C270.095 37.9524 269.991 38.0801 269.857 38.1694C269.723 38.2585 269.566 38.305 269.405 38.3028H268.769C268.605 38.3037 268.446 38.2566 268.308 38.168C268.172 38.0792 268.063 37.9524 267.997 37.8029L263.046 29.1012C262.167 27.5092 261.408 25.8536 260.775 24.1482H260.639C260.87 26.0556 260.993 27.9749 261.002 29.8964V42.9831C261.002 43.4829 260.843 43.642 260.343 43.642H259.458C258.958 43.642 258.799 43.4829 258.799 42.9831V21.4445C258.799 20.9447 258.958 20.7857 259.458 20.7857H260.275C260.461 20.7684 260.65 20.8091 260.811 20.9027C260.975 20.9963 261.104 21.138 261.184 21.3082L269.132 35.44L277.035 21.4445C277.285 20.9674 277.422 20.8993 277.921 20.8993L278.852 20.7857Z" fill="#00205B"/>
<path d="M19.6028 39.9635V56.205C19.6028 56.8277 19.3556 57.4248 18.9155 57.8648C18.4756 58.3051 17.8788 58.5525 17.2563 58.5525C16.6341 58.5525 16.0373 58.3051 15.5972 57.8648C15.1571 57.4248 14.9098 56.8277 14.9098 56.205V39.986C15.5633 40.4633 16.3465 40.7297 17.1553 40.7497C18.0369 40.7749 18.9007 40.4975 19.6028 39.9635ZM39.5874 35.2685C38.9919 35.2685 38.4207 35.5053 37.9996 35.9265C37.5786 36.3477 37.3419 36.9192 37.3419 37.5149V40.3454C37.3419 40.9681 37.5892 41.5652 38.0293 42.0053C38.4692 42.4455 39.066 42.6929 39.6885 42.6929C40.3109 42.6929 40.9077 42.4455 41.3476 42.0053C41.7877 41.5652 42.035 40.9681 42.035 40.3454V37.6272C42.0525 37.3051 42.0004 36.983 41.8823 36.6828C41.7642 36.3827 41.5829 36.1114 41.3505 35.8876C41.1184 35.6639 40.8406 35.4927 40.5366 35.3858C40.2323 35.2791 39.9085 35.2391 39.5874 35.2685ZM9.81265 46.1186C9.00466 46.0944 8.22248 45.8284 7.56719 45.3549V61.6413C7.56719 62.2669 7.81558 62.8669 8.25776 63.3092C8.69991 63.7515 9.29961 64 9.92492 64C10.5502 64 11.1499 63.7515 11.5921 63.3092C12.0343 62.8669 12.2827 62.2669 12.2827 61.6413V45.4672C11.5494 45.9414 10.6842 46.1696 9.81265 46.1186ZM32.2672 30.3938C31.963 30.3785 31.6589 30.4255 31.3733 30.5315C31.0879 30.6376 30.827 30.8006 30.6063 31.0107C30.3858 31.2209 30.2104 31.4737 30.0905 31.7538C29.9708 32.0339 29.909 32.3356 29.9095 32.6402V45.1527C29.9095 45.7783 30.1578 46.3783 30.6 46.8206C31.0423 47.263 31.6419 47.5114 32.2672 47.5114C32.8926 47.5114 33.4923 47.263 33.9345 46.8206C34.3766 46.3783 34.625 45.7783 34.625 45.1527V32.7975C34.6429 32.4733 34.5904 32.1492 34.4709 31.8472C34.3515 31.5453 34.1682 31.2728 33.9333 31.0487C33.6985 30.8245 33.418 30.6537 33.1111 30.5486C32.8041 30.4432 32.4778 30.4057 32.1549 30.4387L32.2672 30.3938ZM24.8123 35.2011C23.9664 35.1953 23.1433 34.9286 22.4546 34.4373V50.7687C22.4546 51.3943 22.7029 51.9943 23.1451 52.4366C23.5874 52.879 24.1869 53.1274 24.8123 53.1274C25.4377 53.1274 26.0372 52.879 26.4796 52.4366C26.9217 51.9943 27.17 51.3943 27.17 50.7687V34.4598C26.4578 34.9906 25.5881 35.2674 24.7 35.2461L24.8123 35.2011ZM4.71546 47.7136V2.08915C4.70955 1.53301 4.48456 1.00169 4.08936 0.610527C3.69416 0.219361 3.16066 -2.24623e-05 2.60473 1.725e-09H2.11073C1.5548 -2.24623e-05 1.0213 0.219361 0.626101 0.610527C0.2309 1.00169 0.00590555 1.53301 0 2.08915V47.7136C0 48.2736 0.22239 48.8107 0.618219 49.2068C1.01405 49.6028 1.55094 49.8252 2.11073 49.8252H2.60473C3.16454 49.8252 3.70141 49.6028 4.09724 49.2068C4.49309 48.8107 4.71546 48.2736 4.71546 47.7136ZM10.0596 44.3889H9.56565C9.00586 44.3889 8.46897 44.1665 8.07314 43.7705C7.67731 43.3744 7.45492 42.8373 7.45492 42.2773V7.52545C7.46085 6.96933 7.68582 6.43796 8.08102 6.04682C8.47622 5.65565 9.00972 5.43627 9.56565 5.43629H10.0596C10.6156 5.43627 11.1491 5.65565 11.5443 6.04682C11.9395 6.43796 12.1645 6.96933 12.1704 7.52545V42.3222C12.1704 42.8822 11.948 43.4194 11.5522 43.8154C11.1563 44.2114 10.6194 44.4338 10.0596 44.4338V44.3889ZM17.4921 39.0425H16.9757C16.4219 39.0425 15.8907 38.8223 15.499 38.4305C15.1074 38.0388 14.8874 37.5075 14.8874 36.9533V12.9168C14.8845 12.6406 14.9363 12.3665 15.0398 12.1104C15.1434 11.8544 15.2967 11.6214 15.491 11.425C15.6852 11.2286 15.9165 11.0727 16.1713 10.9664C16.4262 10.86 16.6995 10.8052 16.9757 10.8052H17.4921C18.0481 10.8111 18.5791 11.0362 18.9701 11.4316C19.3612 11.8269 19.5804 12.3606 19.5804 12.9168V36.9533C19.5804 37.5075 19.3603 38.0388 18.9687 38.4305C18.5771 38.8223 18.0461 39.0425 17.4921 39.0425ZM24.9246 33.5388H24.453C23.8971 33.5388 23.3635 33.3195 22.9683 32.9282C22.5731 32.5371 22.3481 32.0058 22.3423 31.4496V18.5104C22.3239 18.2219 22.3648 17.9328 22.4627 17.6608C22.5603 17.389 22.713 17.1398 22.9108 16.9293C23.1087 16.7186 23.3476 16.551 23.613 16.4365C23.8782 16.3221 24.164 16.2633 24.453 16.264H24.947C25.5068 16.264 26.0437 16.4863 26.4396 16.8824C26.8355 17.2784 27.0578 17.8155 27.0578 18.3756V31.4047C27.0607 31.6839 27.0084 31.9609 26.9035 32.2197C26.7989 32.4785 26.6439 32.7139 26.4474 32.9125C26.2512 33.1108 26.0177 33.2683 25.7599 33.3759C25.5023 33.4835 25.2261 33.5388 24.947 33.5388H24.9246ZM32.3795 28.709H31.8855C31.3257 28.709 30.7888 28.4866 30.3929 28.0906C29.9971 27.6945 29.7748 27.1574 29.7748 26.5974V23.2503C29.7806 22.6941 30.0056 22.1628 30.4008 21.7717C30.796 21.3804 31.3295 21.1611 31.8855 21.1611H32.3795C32.9355 21.1611 33.469 21.3804 33.8642 21.7717C34.2594 22.1628 34.4844 22.6941 34.4902 23.2503V26.5974C34.4902 27.1536 34.2711 27.6874 33.8799 28.0827C33.489 28.4781 32.9579 28.7032 32.4019 28.709H32.3795Z" fill="#1877F2"/>
</svg>
