<svg width="112" height="64" viewBox="0 0 112 64" fill="none" xmlns="http://www.w3.org/2000/svg">
<path fill-rule="evenodd" clip-rule="evenodd" d="M112 64V0H104.438V30.815H49.5001C45.11 36.41 38.3535 36.725 38.3535 36.725L38.7361 37.39H104.448V64H112ZM74.1798 0H66.6127V23.305H74.1798V0ZM74.1798 44.905H66.6127V64H74.1798V44.905Z" fill="#C7745D"/>
<path d="M54.2278 64.0007H45.0396L32.3625 42.0707C30.6356 39.3207 29.5481 37.3907 26.2857 37.3907H15.1038V30.8157H29.0749C29.0749 30.8157 45.4626 31.3907 45.4626 19.2857C45.4626 7.18066 33.5356 6.57566 32.0654 6.57566H7.55192V64.0007H0V0.000657777H32.3524C35.3706 -0.0206305 38.3698 0.47496 41.2184 1.46566C46.7564 3.43066 53.1856 7.96566 53.1856 18.5057C53.1856 24.2057 51.6199 28.1207 49.5053 30.8157C45.1101 36.4157 38.3537 36.7307 38.3537 36.7307L38.7363 37.3907L54.2278 64.0007Z" fill="#1B2526"/>
</svg>
