<svg width="12" height="12" viewBox="0 0 12 12" fill="none" xmlns="http://www.w3.org/2000/svg">
<path d="M10.6666 5.33344H3.21997L6.4733 2.08011C6.7333 1.82011 6.7333 1.39344 6.4733 1.13344C6.41163 1.07164 6.33837 1.0226 6.25772 0.989151C6.17707 0.955696 6.09062 0.938477 6.0033 0.938477C5.91599 0.938477 5.82954 0.955696 5.74889 0.989151C5.66824 1.0226 5.59498 1.07164 5.5333 1.13344L1.13997 5.52677C1.07817 5.58845 1.02914 5.66171 0.995682 5.74236C0.962227 5.823 0.945007 5.90946 0.945007 5.99677C0.945007 6.08408 0.962227 6.17054 0.995682 6.25119C1.02914 6.33184 1.07817 6.4051 1.13997 6.46677L5.5333 10.8601C5.59503 10.9218 5.6683 10.9708 5.74894 11.0042C5.82958 11.0376 5.91602 11.0548 6.0033 11.0548C6.09059 11.0548 6.17702 11.0376 6.25767 11.0042C6.33831 10.9708 6.41158 10.9218 6.4733 10.8601C6.53503 10.7984 6.58398 10.7251 6.61739 10.6445C6.65079 10.5638 6.66798 10.4774 6.66798 10.3901C6.66798 10.3028 6.65079 10.2164 6.61739 10.1357C6.58398 10.0551 6.53503 9.98183 6.4733 9.9201L3.21997 6.66677H10.6666C11.0333 6.66677 11.3333 6.36677 11.3333 6.00011C11.3333 5.63344 11.0333 5.33344 10.6666 5.33344Z" fill="#C7745D"/>
</svg>
