<svg width="64" height="64" viewBox="0 0 64 64" fill="none" xmlns="http://www.w3.org/2000/svg">
<rect width="64" height="64" fill="white"/>
<path fill-rule="evenodd" clip-rule="evenodd" d="M32.45 52.8136C32.2015 53.0621 31.7985 53.0621 31.55 52.8136L11.1864 32.45C10.9379 32.2015 10.9379 31.7985 11.1864 31.55L31.55 11.1864C31.7985 10.9379 32.2015 10.9379 32.45 11.1864C32.6985 11.4349 32.6985 11.8378 32.45 12.0863L13.1727 31.3636L52.3636 31.3636C52.7151 31.3636 53 31.6485 53 32C53 32.3515 52.7151 32.6364 52.3636 32.6364L13.1727 32.6364L32.45 51.9137C32.6985 52.1622 32.6985 52.5651 32.45 52.8136Z" fill="#1B2526"/>
</svg>
