<svg width="7" height="6" viewBox="0 0 7 6" fill="none" xmlns="http://www.w3.org/2000/svg">
<path d="M1.84783 5.75462L5.79703 1.80543L5.79703 5.25611C5.79703 5.53188 6.0233 5.75815 6.29907 5.75815C6.57484 5.75815 6.79758 5.53542 6.79758 5.25964L6.79758 0.59981C6.79765 0.534326 6.7848 0.469471 6.75977 0.408959C6.73474 0.348447 6.69803 0.293465 6.65172 0.247161C6.60542 0.200857 6.55044 0.164139 6.48992 0.13911C6.42941 0.114081 6.36456 0.101233 6.29907 0.1013L1.63924 0.094229C1.57377 0.094229 1.50895 0.107123 1.44847 0.132176C1.38798 0.157228 1.33303 0.193948 1.28674 0.240239C1.24045 0.28653 1.20373 0.341486 1.17867 0.401968C1.15362 0.46245 1.14073 0.527274 1.14073 0.592739C1.14073 0.658205 1.15362 0.723029 1.17867 0.783511C1.20373 0.843993 1.24045 0.898949 1.28674 0.945239C1.33303 0.99153 1.38798 1.02825 1.44847 1.0533C1.50895 1.07836 1.57377 1.09125 1.63924 1.09125L5.08992 1.09832L1.14073 5.04751C0.946274 5.24197 0.946273 5.56017 1.14073 5.75462C1.33518 5.94907 1.65338 5.94907 1.84783 5.75462Z" fill="white"/>
</svg>
