<svg width="28" height="28" viewBox="0 0 28 28" fill="none" xmlns="http://www.w3.org/2000/svg">
<path d="M14 0.666992C6.64002 0.666992 0.666687 6.64033 0.666687 14.0003C0.666687 21.3603 6.64002 27.3337 14 27.3337C21.36 27.3337 27.3334 21.3603 27.3334 14.0003C27.3334 6.64033 21.36 0.666992 14 0.666992ZM14 20.667C13.2667 20.667 12.6667 20.067 12.6667 19.3337V14.0003C12.6667 13.267 13.2667 12.667 14 12.667C14.7334 12.667 15.3334 13.267 15.3334 14.0003V19.3337C15.3334 20.067 14.7334 20.667 14 20.667ZM15.3334 10.0003H12.6667V7.33366H15.3334V10.0003Z" fill="white"/>
</svg>
