<svg width="64" height="64" viewBox="0 0 64 64" fill="none" xmlns="http://www.w3.org/2000/svg">
<rect width="64" height="64" fill="white"/>
<path d="M31.9999 21.3334C25.3333 21.3334 19.6399 25.48 17.3333 31.3334C19.6399 37.1867 25.3333 41.3334 31.9999 41.3334C38.6666 41.3334 44.3599 37.1867 46.6666 31.3334C44.3599 25.48 38.6666 21.3334 31.9999 21.3334ZM31.9999 38C28.3199 38 25.3333 35.0134 25.3333 31.3334C25.3333 27.6534 28.3199 24.6667 31.9999 24.6667C35.6799 24.6667 38.6666 27.6534 38.6666 31.3334C38.6666 35.0134 35.6799 38 31.9999 38ZM31.9999 27.3334C29.7866 27.3334 27.9999 29.12 27.9999 31.3334C27.9999 33.5467 29.7866 35.3334 31.9999 35.3334C34.2133 35.3334 35.9999 33.5467 35.9999 31.3334C35.9999 29.12 34.2133 27.3334 31.9999 27.3334Z" fill="#1B2526"/>
</svg>
