<svg width="240" height="64" viewBox="0 0 240 64" fill="none" xmlns="http://www.w3.org/2000/svg">
<g clip-path="url(#clip0_826_7460)">
<path fill-rule="evenodd" clip-rule="evenodd" d="M134.89 23.7H137.633L142.529 30.8H147.29L141.895 23.145C145.197 22.115 147.071 19.605 147.071 16.145C147.071 11.535 143.698 8.58496 138.078 8.58496H130.844V30.815H134.89V23.7ZM138.253 20H134.89V12.25H138.253C141.265 12.25 142.949 13.65 142.949 16.125C142.949 18.6 141.25 20 138.253 20ZM154.959 25.9999H163.657L165.306 30.8149H169.462L161.554 8.59491H157.057L149.154 30.8249H153.31L154.959 25.9999ZM159.371 13.3799L162.483 22.5699L156.133 22.5599L159.246 13.3799H159.371ZM202.336 27.1V30.815H189.456V8.58496H193.488V27.085L202.336 27.1ZM185.505 30.815V27.1L176.677 27.085V8.58496H172.645V30.815H185.505ZM211.048 12.27V17.86H219.821V21.445H211.048V27.13H220.79V30.815H207.017V8.58496H220.79V12.27H211.048ZM148.01 59.62V37.39H144.028V46.92H134.89V37.39H130.844V59.62H134.89V50.62H144.013V59.62H148.01ZM152.106 48.4999C152.106 41.7649 156.803 36.9999 163.212 36.9999C169.622 36.9999 174.318 41.7599 174.318 48.4999C174.318 55.2399 169.622 59.9999 163.212 59.9999C156.803 59.9999 152.106 55.2399 152.106 48.4999ZM170.197 48.4999C170.197 43.7699 167.274 40.7199 163.202 40.7199C159.131 40.7199 156.208 43.7699 156.208 48.4999C156.208 53.2299 159.096 56.2799 163.202 56.2799C167.309 56.2799 170.197 53.2399 170.197 48.4999ZM202.291 59.62V37.39H198.029L190.445 53.78H190.345L182.741 37.39H178.46V59.62H182.392V45.3H182.487L189.071 59.62H191.639L198.244 45.3H198.339V59.62H202.291ZM211.048 41.075V46.665H219.821V50.255H211.048V55.94H220.79V59.62H207.017V37.39H220.79V41.075H211.048ZM227.62 52.55H223.588C223.653 57.19 226.896 60.1 231.812 60.1C236.728 60.1 240 57.175 240 52.985C240 49.88 238.251 47.91 233.97 46.985L231.812 46.485C228.734 45.82 227.815 45.025 227.815 43.595C227.815 41.85 229.309 40.625 231.622 40.625C233.935 40.625 235.399 41.74 235.684 44.025H239.71C239.52 39.695 236.478 37.025 231.717 37.025C226.956 37.025 223.778 39.825 223.778 43.73C223.778 46.84 225.747 48.905 229.843 49.765L232.032 50.265C235.049 50.9 235.998 51.855 235.998 53.315C235.998 55.155 234.48 56.46 232.002 56.46C229.524 56.46 227.81 55.125 227.62 52.55Z" fill="#1B2526"/>
<path fill-rule="evenodd" clip-rule="evenodd" d="M111.14 64V0H103.636V30.815H49.1201C44.7636 36.41 38.0591 36.725 38.0591 36.725L38.4388 37.39H103.646V64H111.14ZM73.61 0H66.1011V23.305H73.61V0ZM73.61 44.905H66.1011V64H73.61V44.905Z" fill="#C7745D"/>
<path d="M53.8113 64.0007H44.6937L32.1139 42.0707C30.4003 39.3207 29.3212 37.3907 26.0838 37.3907H14.9878V30.8157H28.8516C28.8516 30.8157 45.1133 31.3907 45.1133 19.2857C45.1133 7.18066 33.278 6.57566 31.8191 6.57566H7.49391V64.0007H0V0.000657777H32.1039C35.0989 -0.0206305 38.0751 0.47496 40.9018 1.46566C46.3973 3.43066 52.7771 7.96566 52.7771 18.5057C52.7771 24.2057 51.2234 28.1207 49.1251 30.8157C44.7636 36.4157 38.0591 36.7307 38.0591 36.7307L38.4388 37.3907L53.8113 64.0007Z" fill="#1B2526"/>
</g>
<defs>
<clipPath id="clip0_826_7460">
<rect width="240" height="64.0007" fill="white"/>
</clipPath>
</defs>
</svg>
