<svg width="20" height="20" viewBox="0 0 20 20" fill="none" xmlns="http://www.w3.org/2000/svg">
<path d="M18 11.3337H11.3333V18.0003C11.3333 18.7337 10.7333 19.3337 10 19.3337C9.26667 19.3337 8.66667 18.7337 8.66667 18.0003V11.3337H2.00001C1.26667 11.3337 0.666672 10.7337 0.666672 10.0003C0.666672 9.26699 1.26667 8.66699 2.00001 8.66699H8.66667V2.00033C8.66667 1.26699 9.26667 0.666992 10 0.666992C10.7333 0.666992 11.3333 1.26699 11.3333 2.00033V8.66699H18C18.7333 8.66699 19.3333 9.26699 19.3333 10.0003C19.3333 10.7337 18.7333 11.3337 18 11.3337Z" fill="#C7745D"/>
</svg>
