<svg width="12" height="12" viewBox="0 0 12 12" fill="none" xmlns="http://www.w3.org/2000/svg">
<path d="M1.33326 6.66649H8.77993L5.5266 9.91982C5.2666 10.1798 5.2666 10.6065 5.5266 10.8665C5.7866 11.1265 6.2066 11.1265 6.4666 10.8665L10.8599 6.47316C10.9217 6.41148 10.9708 6.33822 11.0042 6.25757C11.0377 6.17692 11.0549 6.09047 11.0549 6.00316C11.0549 5.91584 11.0377 5.82939 11.0042 5.74874C10.9708 5.66809 10.9217 5.59483 10.8599 5.53316L6.47326 1.13316C6.41154 1.07144 6.33827 1.02248 6.25762 0.989072C6.17698 0.955669 6.09055 0.938477 6.00326 0.938477C5.91598 0.938477 5.82954 0.955669 5.7489 0.989072C5.66826 1.02248 5.59498 1.07144 5.53326 1.13316C5.47154 1.19488 5.42258 1.26815 5.38918 1.34879C5.35577 1.42944 5.33858 1.51587 5.33858 1.60316C5.33858 1.69044 5.35577 1.77688 5.38918 1.85752C5.42258 1.93816 5.47154 2.01144 5.53326 2.07316L8.77993 5.33316H1.33326C0.966595 5.33316 0.666595 5.63316 0.666595 5.99982C0.666595 6.36649 0.966595 6.66649 1.33326 6.66649Z" fill="white"/>
</svg>
